<svg xmlns="http://www.w3.org/2000/svg" viewBox="-33.414550658456776 -33.414550658456776 166.82910131691355 233.90185460919741" xmlns:xlink="http://www.w3.org/1999/xlink" version="1.1"  ><rect width="100%" height="100%" x="-33.414550658456776" y="-33.414550658456776" fill="#000000" ></rect><g transform="translate(-33.53984213820595 0) scale(1.7403409035082198)" id="containerlessSvgTemplate"><g fill="000000"><path d="M74.812 96a1.919 1.919 0 0 1-1.916-1.916c0-15.568-17.928-38.72-32.324-57.348-11.896-15.384-21.3-27.532-21.3-34.82C19.272.86 20.132 0 21.188 0s1.916.86 1.916 1.916c0 5.98 9.96 18.848 20.504 32.484 15.528 20.06 33.12 42.816 33.12 59.688 0 1.06-.852 1.912-1.916 1.912z"></path><path d="M21.188 96a1.919 1.919 0 0 1-1.916-1.916c0-16.864 17.596-39.62 33.12-59.688C62.94 20.764 72.9 7.888 72.9 1.92c0-1.056.86-1.916 1.916-1.916s1.916.86 1.916 1.916c0 7.276-9.408 19.436-21.304 34.828-14.396 18.616-32.32 41.78-32.32 57.352a1.916 1.916 0 0 1-1.92 1.9z"></path><path d="M66.916 90.016H28.608a1.919 1.919 0 0 1-1.916-1.916c0-1.06.856-1.916 1.916-1.916h38.304c1.056 0 1.916.86 1.916 1.916s-.86 1.916-1.912 1.916zM63.08 82.356H32.44c-1.06 0-1.916-.864-1.916-1.916s.856-1.916 1.916-1.916h30.636a1.917 1.917 0 1 1 .004 3.832zM59.252 74.692h-22.98c-1.056 0-1.916-.86-1.916-1.916s.86-1.916 1.916-1.916h22.98a1.916 1.916 0 0 1 0 3.832zM55.42 67.032H40.1c-1.056 0-1.916-.86-1.916-1.916s.86-1.916 1.916-1.916h15.32c1.056 0 1.916.86 1.916 1.916s-.86 1.916-1.916 1.916zM51.592 59.372h-7.664c-1.056 0-1.916-.86-1.916-1.916s.86-1.916 1.916-1.916h7.664c1.056 0 1.916.86 1.916 1.916s-.86 1.916-1.916 1.916zM66.916 5.748H28.608a1.919 1.919 0 0 1-1.916-1.916c0-1.052.856-1.916 1.916-1.916h38.304c1.056 0 1.916.86 1.916 1.916a1.92 1.92 0 0 1-1.912 1.916zM63.08 13.408H32.44a1.916 1.916 0 0 1 0-3.832h30.636a1.917 1.917 0 1 1 .004 3.832zM59.252 21.068h-22.98a1.919 1.919 0 0 1-1.916-1.916c0-1.052.86-1.916 1.916-1.916h22.98a1.916 1.916 0 0 1 0 3.832zM51.592 28.728h-7.664a1.919 1.919 0 0 1-1.916-1.916c0-1.052.86-1.916 1.916-1.916h7.664c1.056 0 1.916.86 1.916 1.916s-.86 1.916-1.916 1.916zM47.76 36.388c-.5 0-.996-.188-1.34-.576a1.789 1.789 0 0 1-.576-1.34c0-.54.228-1.036.576-1.38.612-.652 1.952-.72 2.68.044.384.352.576.848.576 1.348s-.192.96-.536 1.348c-.42.368-.88.556-1.38.556z"></path></g></g></svg>