<svg xmlns="http://www.w3.org/2000/svg" viewBox="-20 -20 140 55.13143362049923" xmlns:xlink="http://www.w3.org/1999/xlink" version="1.1"  ><rect width="100%" height="100%" x="-20" y="-20" fill="#000000" ></rect><g transform="translate(50.00000000000001 0) scale(0.1513143362049923)" id="logotypeSvgTemplate"><g fill="#FFFFFF"><g transform="translate(-337.73722627737226 98.54014598540147) scale(2.02757502027575)" fill="#FFFFFF"><g id="line1" fill="#FFFFFF"><path d="M26.352-25.488C29.088-26.544 30.456-28.992 30.456-32.832L30.456-37.080C30.456-43.416 27.480-46.584 21.528-46.584L3.600-46.584L3.600 0L22.104 0C28.056 0 31.032-3.168 31.032-9.504L31.032-17.856C31.032-21.840 29.472-24.384 26.352-25.488ZM19.008-39.744C19.392-39.744 19.716-39.600 19.980-39.312C20.244-39.024 20.376-38.688 20.376-38.304L20.376-28.728C20.376-28.344 20.244-28.008 19.980-27.720C19.716-27.432 19.392-27.288 19.008-27.288L13.680-27.288L13.680-39.744ZM20.952-8.352C20.952-7.968 20.820-7.632 20.556-7.344C20.292-7.056 19.968-6.912 19.584-6.912L13.680-6.912L13.680-20.232L19.584-20.232C19.968-20.232 20.292-20.088 20.556-19.800C20.820-19.512 20.952-19.176 20.952-18.792Z"></path><path d="M43.495-38.016C44.935-38.016 46.171-38.520 47.203-39.528C48.235-40.536 48.751-41.784 48.751-43.272C48.751-44.760 48.235-46.020 47.203-47.052C46.171-48.084 44.935-48.600 43.495-48.600C42.055-48.600 40.807-48.084 39.751-47.052C38.695-46.020 38.167-44.772 38.167-43.308C38.167-41.844 38.695-40.596 39.751-39.564C40.807-38.532 42.055-38.016 43.495-38.016ZM38.671 0L48.319 0L48.319-35.136L38.671-35.136Z"></path><path d="M80.870-26.352C80.870-32.688 77.894-35.856 71.942-35.856L63.806-35.856C57.854-35.856 54.878-32.688 54.878-26.352L54.878-8.784C54.878-2.448 57.854 0.720 63.806 0.720L71.942 0.720C77.894 0.720 80.870-2.448 80.870-8.784ZM71.222-6.768C71.222-6.384 71.090-6.048 70.826-5.760C70.562-5.472 70.238-5.328 69.854-5.328L65.894-5.328C65.510-5.328 65.186-5.472 64.922-5.760C64.658-6.048 64.526-6.384 64.526-6.768L64.526-28.440C64.526-28.824 64.658-29.160 64.922-29.448C65.186-29.736 65.510-29.880 65.894-29.880L69.854-29.880C70.238-29.880 70.562-29.736 70.826-29.448C71.090-29.160 71.222-28.824 71.222-28.440Z"></path><path d="M84.910-38.016L92.470-38.016L92.470 0L102.550 0L102.550-38.016L110.110-38.016L110.110-46.584L84.910-46.584Z"></path><path d="M131.213-35.856L123.077-35.856C117.125-35.856 114.149-32.688 114.149-26.352L114.149-8.784C114.149-2.448 117.125 0.720 123.077 0.720L131.213 0.720C137.165 0.720 140.141-2.448 140.141-8.784L140.141-11.520L130.493-11.520L130.493-7.632C130.493-7.248 130.361-6.912 130.097-6.624C129.833-6.336 129.509-6.192 129.125-6.192L125.165-6.192C124.781-6.192 124.457-6.336 124.193-6.624C123.929-6.912 123.797-7.248 123.797-7.632L123.797-14.976L140.141-14.976L140.141-26.352C140.141-32.688 137.165-35.856 131.213-35.856ZM123.797-21.312L123.797-27.792C123.797-28.176 123.929-28.512 124.193-28.800C124.457-29.088 124.781-29.232 125.165-29.232L129.125-29.232C129.509-29.232 129.833-29.088 130.097-28.800C130.361-28.512 130.493-28.176 130.493-27.792L130.493-21.312Z"></path><path d="M172.908-35.136L163.404-35.136L158.148-22.536L154.908-22.536L154.908-46.584L145.260-46.584L145.260 0L154.908 0L154.908-14.616L157.788-14.616L164.412 0L174.060 0L165.708-18.648Z"></path><path d=""></path><path d="M219.290 0L219.290-37.800C219.290-44.136 216.314-47.304 210.362-47.304L201.434-47.304C195.482-47.304 192.506-44.136 192.506-37.800L192.506 0L202.586 0L202.586-38.664C202.586-39.048 202.718-39.384 202.982-39.672C203.246-39.960 203.570-40.104 203.954-40.104L207.842-40.104C208.226-40.104 208.550-39.960 208.814-39.672C209.078-39.384 209.210-39.048 209.210-38.664L209.210 0Z"></path><path d="M242.554-35.856L234.418-35.856C228.466-35.856 225.490-32.688 225.490-26.352L225.490-8.784C225.490-2.448 228.466 0.720 234.418 0.720L242.554 0.720C248.506 0.720 251.482-2.448 251.482-8.784L251.482-11.520L241.834-11.520L241.834-7.632C241.834-7.248 241.702-6.912 241.438-6.624C241.174-6.336 240.850-6.192 240.466-6.192L236.506-6.192C236.122-6.192 235.798-6.336 235.534-6.624C235.270-6.912 235.138-7.248 235.138-7.632L235.138-14.976L251.482-14.976L251.482-26.352C251.482-32.688 248.506-35.856 242.554-35.856ZM235.138-21.312L235.138-27.792C235.138-28.176 235.270-28.512 235.534-28.800C235.798-29.088 236.122-29.232 236.506-29.232L240.466-29.232C240.850-29.232 241.174-29.088 241.438-28.800C241.702-28.512 241.834-28.176 241.834-27.792L241.834-21.312Z"></path><path d="M272.585-35.136L267.329-7.848L263.225-35.136L253.865-35.136L261.569 0L273.233 0L277.193-21.672L281.153 0L292.817 0L300.521-35.136L291.161-35.136L287.057-7.848L281.801-35.136Z"></path><path d="M320.616-22.032L313.200-22.032C312.816-22.032 312.492-22.176 312.228-22.464C311.964-22.752 311.832-23.088 311.832-23.472L311.832-27.288C311.832-27.672 311.964-28.008 312.228-28.296C312.492-28.584 312.816-28.728 313.200-28.728L318.672-28.728C319.056-28.728 319.380-28.584 319.644-28.296C319.908-28.008 320.040-27.672 320.040-27.288L320.040-25.056L328.968-25.056L328.968-26.352C328.968-32.688 325.992-35.856 320.040-35.856L312.480-35.856C306.528-35.856 303.552-32.688 303.552-26.352L303.552-23.112C303.552-16.776 306.528-13.608 312.480-13.608L319.896-13.608C320.280-13.608 320.604-13.464 320.868-13.176C321.132-12.888 321.264-12.552 321.264-12.168L321.264-7.848C321.264-7.464 321.132-7.128 320.868-6.840C320.604-6.552 320.280-6.408 319.896-6.408L313.992-6.408C313.608-6.408 313.284-6.552 313.020-6.840C312.756-7.128 312.624-7.464 312.624-7.848L312.624-11.016L303.696-11.016L303.696-8.784C303.696-2.448 306.672 0.720 312.624 0.720L320.616 0.720C326.568 0.720 329.544-2.448 329.544-8.784L329.544-12.528C329.544-18.864 326.568-22.032 320.616-22.032Z"></path></g></g></g></g></svg>